<?xml version="1.0" standalone="no"?>
<!DOCTYPE svg PUBLIC "-//W3C//DTD SVG 20010904//EN"
 "http://www.w3.org/TR/2001/REC-SVG-20010904/DTD/svg10.dtd">
<svg version="1.0" xmlns="http://www.w3.org/2000/svg"
 width="544.000000pt" height="122.000000pt" viewBox="0 0 544.000000 122.000000"
 preserveAspectRatio="xMidYMid meet">
<metadata>
Created by potrace 1.16, written by Peter Selinger 2001-2019
</metadata>
<g transform="translate(0.000000,122.000000) scale(0.100000,-0.100000)"
fill="#000000" stroke="none">
<path d="M0 620 l0 -600 330 0 330 0 0 85 0 85 -240 0 -240 0 0 200 0 200 233
2 232 3 3 83 3 82 -236 0 -235 0 0 145 0 145 240 0 240 0 0 85 0 85 -330 0
-330 0 0 -600z"/>
<path d="M3660 1183 c-40 -27 -49 -45 -50 -91 0 -37 6 -50 34 -78 25 -25 43
-34 68 -34 105 0 156 128 77 194 -36 31 -92 35 -129 9z"/>
<path d="M1817 790 c-125 -32 -223 -128 -261 -259 -18 -61 -21 -174 -6 -239
60 -260 342 -372 546 -217 l33 25 3 -37 3 -38 83 -3 82 -3 0 376 0 375 -85 0
-85 0 0 -41 0 -41 -37 32 c-71 63 -187 92 -276 70z m202 -170 c48 -24 95 -79
110 -129 20 -69 14 -161 -15 -220 -61 -123 -220 -156 -321 -68 -123 108 -100
347 40 416 55 27 134 28 186 1z"/>
<path d="M2738 786 c-20 -7 -55 -28 -77 -45 l-41 -33 0 31 0 31 -85 0 -85 0 0
-375 0 -375 85 0 85 0 0 225 c0 261 8 315 55 362 28 28 40 33 83 33 58 0 95
-29 112 -89 5 -20 10 -147 10 -283 l0 -248 85 0 85 0 0 183 c0 206 12 332 35
376 40 78 165 82 207 8 9 -16 14 -102 18 -292 l5 -270 83 -3 82 -3 0 285 c0
308 -5 345 -56 412 -60 81 -208 104 -317 51 -31 -16 -66 -40 -77 -54 l-20 -26
-41 42 c-63 62 -153 85 -231 57z"/>
<path d="M4280 790 c-49 -10 -80 -24 -120 -55 l-35 -26 -3 30 -3 31 -85 0 -84
0 0 -370 0 -370 84 0 84 0 4 243 c3 226 4 245 25 287 29 58 66 80 135 80 66 0
96 -15 122 -60 20 -32 21 -54 24 -298 l4 -262 85 0 85 0 -5 287 c-2 191 -8
301 -16 327 -35 109 -178 183 -301 156z"/>
<path d="M4994 790 c-105 -22 -204 -102 -245 -197 -73 -170 -35 -391 84 -498
69 -63 141 -88 252 -88 144 0 238 48 323 166 l32 45 -63 35 c-34 20 -67 37
-73 39 -6 2 -30 -21 -53 -49 -51 -65 -90 -86 -161 -87 -101 0 -180 68 -197
168 l-6 36 272 0 271 0 0 68 c0 78 -21 158 -55 212 -34 54 -109 116 -163 134
-58 20 -164 28 -218 16z m177 -173 c35 -24 79 -81 79 -103 0 -11 -35 -14 -175
-14 -96 0 -175 3 -175 8 1 25 51 90 85 109 55 31 139 31 186 0z"/>
<path d="M866 636 l106 -135 49 58 c27 33 49 62 49 65 0 4 -24 38 -52 76 l-52
70 -103 0 -103 0 106 -134z"/>
<path d="M1035 449 c-143 -177 -279 -345 -303 -375 l-44 -54 104 0 104 0 295
361 c161 199 298 368 302 375 7 12 -10 14 -95 14 l-103 -1 -260 -320z"/>
<path d="M3630 395 l0 -375 85 0 85 0 0 375 0 375 -85 0 -85 0 0 -375z"/>
<path d="M1231 306 c-23 -30 -43 -58 -43 -63 1 -4 38 -56 83 -115 l83 -108 99
0 c55 0 97 4 95 9 -6 17 -259 331 -266 331 -4 0 -27 -24 -51 -54z"/>
</g>
</svg>
